#!OML:ASF F:\VICON\USERDATA\INSTALL\rory3\rory3.ASF
:FULLY-SPECIFIED
:DEGREES
2110
root 3.75792 17.7839 1.28374 3.70336 -33.241 -2.63554
lowerback 3.53489 -0.657122 -6.17763
upperback 2.10609 -1.06746 -0.404662
thorax 0.295633 -0.593835 3.07937
lowerneck -18.2279 -7.93819 -14.0193
upperneck 16.8869 -9.47229 11.0836
head 9.56247 -4.22215 4.80197
rclavicle 1.80894e-014 3.18055e-015
rhumerus -9.07685 11.726 -71.6393
rradius 42.6191
rwrist 20.1403
rhand -13.619 4.06919
rfingers 7.12502
rthumb 12.4965 -25.5372
lclavicle 1.80894e-014 3.18055e-015
lhumerus -18.2105 -22.1229 77.3374
lradius 42.4919
lwrist -4.63165
lhand -7.64649 25.5068
lfingers 7.12502
lthumb 18.249 54.6708
rfemur -17.2734 0.559612 10.6754
rtibia 33.6929
rfoot -16.4947 -7.57993
rtoes -2.84668
lfemur -13.6103 -0.918692 -15.616
ltibia 28.1765
lfoot -11.6648 -1.16308
ltoes -7.73377
2111
root 3.72754 17.7967 1.31071 3.53339 -33.2087 -2.63662
lowerback 3.34841 -0.5515 -5.91765
upperback 2.15097 -0.904967 -0.533053
thorax 0.42282 -0.514109 2.79367
lowerneck -18.3566 -8.06644 -13.8062
upperneck 17.0312 -9.68371 10.98
head 9.64793 -4.31281 4.69449
rclavicle 2.29596e-014 -9.54166e-015
rhumerus -8.17115 10.145 -70.0356
rradius 43.4616
rwrist 20.0791
rhand -13.9801 3.92706
rfingers 7.12502
rthumb 12.1483 -25.7002
lclavicle 2.29596e-014 -9.54166e-015
lhumerus -16.6135 -21.6613 75.3418
lradius 42.954
lwrist -4.20315
lhand -8.64579 25.742
lfingers 7.12502
lthumb 17.2874 54.9931
rfemur -17.0436 0.671583 10.3968
rtibia 33.4056
rfoot -15.5874 -7.58801
rtoes -2.98395
lfemur -13.0113 -0.974874 -15.587
ltibia 27.6444
lfoot -11.5339 -1.09091
ltoes -8.16666
2112
root 3.6952 17.8072 1.3277 3.37943 -32.9925 -2.5728
lowerback 3.20911 -0.663663 -5.9639
upperback 2.01764 -1.04906 -0.446748
thorax 0.379207 -0.582429 2.91139
lowerneck -17.8635 -7.94322 -13.8955
upperneck 16.9104 -9.51931 10.8659
head 9.49247 -4.27043 4.70373
rclavicle 4.77083e-014 -7.95139e-015
rhumerus -7.34894 9.46652 -68.3133
rradius 44.426
rwrist 19.6481
rhand -14.6786 3.51719
rfingers 7.12502
rthumb 11.4747 -26.1488
lclavicle 4.77083e-014 -7.95139e-015
lhumerus -15.5499 -20.6365 73.6068
lradius 43.5442
lwrist -3.85108
lhand -9.39628 26.1013
lfingers 7.12502
lthumb 16.565 55.4143
rfemur -16.8407 0.782168 10.067
rtibia 33.164
rfoot -14.9023 -7.7299
rtoes -2.55126
lfemur -12.5306 -1.10136 -15.5809
ltibia 27.1137
lfoot -11.3709 -1.16475
ltoes -8.53602
2113
root 3.66003 17.8153 1.34674 3.1633 -32.8584 -2.44549
lowerback 3.10514 -0.806376 -6.16092
upperback 1.80197 -1.24261 -0.284715
thorax 0.241836 -0.672254 3.19417
lowerneck -17.2181 -7.7594 -14.1034
upperneck 16.8139 -9.26091 10.7358
head 9.31095 -4.19792 4.74471
rclavicle -3.65764e-014 6.36111e-015
rhumerus -6.5637 9.04618 -66.5198
rradius 45.3895
rwrist 19.1653
rhand -15.6765 3.46699
rfingers 7.12502
rthumb 10.5122 -26.2501
lclavicle -3.65764e-014 6.36111e-015
lhumerus -14.7431 -19.3208 71.9885
lradius 44.112
lwrist -3.8935
lhand -10.4128 26.2911
lfingers 7.12502
lthumb 15.5861 55.6831
rfemur -16.6116 1.02372 9.66261
rtibia 32.9519
rfoot -14.3814 -7.88161
rtoes -0.922919
lfemur -12.0096 -1.21227 -15.6285
ltibia 26.6207
lfoot -11.2745 -1.20644
ltoes -8.14398
2114
root 3.62324 17.8225 1.3644 2.95476 -32.7028 -2.32639
lowerback 3.09169 -0.94738 -6.33899
upperback 1.56846 -1.44059 -0.119377
thorax 0.0376683 -0.760947 3.47224
lowerneck -16.7488 -7.61994 -14.3458
upperneck 16.8743 -9.0442 10.593
head 9.22227 -4.14229 4.77777
rclavicle 8.48811e-014 2.38542e-015
rhumerus -5.70303 8.44381 -64.7347
rradius 46.3065
rwrist 18.7976
rhand -16.3363 3.92303
rfingers 7.12502
rthumb 9.87566 -25.8254
lclavicle 8.48811e-014 2.38542e-015
lhumerus -13.9626 -17.8545 70.4072
lradius 44.7237
lwrist -4.07105
lhand -11.4915 26.5952
lfingers 7.12502
lthumb 14.5469 56.0652
rfemur -16.3919 1.19168 9.30438
rtibia 32.778
rfoot -13.6511 -8.17873
rtoes 0.552068
lfemur -11.5237 -1.32041 -15.6536
ltibia 26.1509
lfoot -11.1579 -1.28743
ltoes -8.1504
2115
root 3.58691 17.8286 1.38057 2.80512 -32.541 -2.21919
lowerback 2.97496 -1.02795 -6.36145
upperback 1.47133 -1.54254 -0.0760881
thorax 0.015553 -0.80891 3.53066
lowerneck -16.6969 -7.60922 -14.4283
upperneck 16.994 -9.00744 10.5113
head 9.24908 -4.14094 4.77044
rclavicle -1.80894e-014 -4.77083e-015
rhumerus -4.72949 7.5181 -63.0738
rradius 47.299
rwrist 18.2868
rhand -16.846 3.4488
rfingers 7.12502
rthumb 9.38395 -26.3223
lclavicle -1.80894e-014 -4.77083e-015
lhumerus -12.7215 -16.6826 68.602
lradius 45.2689
lwrist -3.89416
lhand -12.08 26.8235
lfingers 7.12502
lthumb 13.9799 56.3334
rfemur -16.2516 1.3595 8.96777
rtibia 32.6264
rfoot -12.6818 -8.59352
rtoes 1.5249
lfemur -11.1238 -1.35662 -15.6722
ltibia 25.7223
lfoot -11.0571 -1.36815
ltoes -8.43381
2116
root 3.5493 17.8323 1.39712 2.61782 -32.439 -2.04815
lowerback 2.77587 -1.03542 -6.37716
upperback 1.452 -1.53872 -0.104376
thorax 0.106359 -0.809262 3.50572
lowerneck -16.7734 -7.64316 -14.3745
upperneck 17.1127 -9.0463 10.4156
head 9.30153 -4.16328 4.7214
rclavicle -2.57426e-014 1.27222e-014
rhumerus -3.73659 6.40174 -61.4635
rradius 48.232
rwrist 17.7824
rhand -18.1334 2.47973
rfingers 7.12502
rthumb 8.14158 -27.3434
lclavicle -2.57426e-014 1.27222e-014
lhumerus -11.2233 -15.8218 66.696
lradius 45.7511
lwrist -3.38493
lhand -12.6112 27.3702
lfingers 7.12502
lthumb 13.4679 56.9147
rfemur -16.163 1.60044 8.5641
rtibia 32.5156
rfoot -11.7479 -9.08497
rtoes 2.04842
lfemur -10.7101 -1.36703 -15.7599
ltibia 25.328
lfoot -11.009 -1.40868
ltoes -8.46063
2117
root 3.51229 17.8349 1.41122 2.40123 -32.2795 -1.90604
lowerback 2.72936 -1.08987 -6.38819
upperback 1.36621 -1.61065 -0.0797102
thorax 0.0526491 -0.84144 3.53898
lowerneck -16.706 -7.58382 -14.3274
upperneck 17.2004 -8.95379 10.2397
head 9.29557 -4.13724 4.66796
rclavicle -4.12478e-014 5.56597e-015
rhumerus -2.75629 5.44151 -59.8324
rradius 49.0579
rwrist 17.289
rhand -19.5297 2.24363
rfingers 7.12502
rthumb 6.79385 -27.6274
lclavicle -4.12478e-014 5.56597e-015
lhumerus -9.99912 -14.6809 64.9426
lradius 46.279
lwrist -3.16852
lhand -13.8003 27.992
lfingers 7.12502
lthumb 12.3217 57.6089
rfemur -15.9835 1.8147 8.20781
rtibia 32.4102
rfoot -11.1477 -9.59925
rtoes 2.46449
lfemur -10.2934 -1.4886 -15.8114
ltibia 25.0026
lfoot -11.0036 -1.43257
ltoes -8.59445
2118
root 3.47413 17.8345 1.42729 2.11477 -32.1091 -1.64641
lowerback 2.68605 -1.16702 -6.48448
upperback 1.25368 -1.71613 -0.0724904
thorax -0.0245635 -0.889296 3.60312
lowerneck -16.5496 -7.53451 -14.3841
upperneck 17.2879 -8.87834 10.1384
head 9.28507 -4.12155 4.65713
rclavicle -5.14355e-014 -8.74653e-015
rhumerus -1.86704 4.58655 -58.2391
rradius 49.983
rwrist 16.6305
rhand -20.2642 2.28202
rfingers 7.12502
rthumb 6.08471 -27.6106
lclavicle -5.14355e-014 -8.74653e-015
lhumerus -9.05541 -13.1358 63.3541
lradius 46.9905
lwrist -3.17774
lhand -14.8404 28.4334
lfingers 7.12502
lthumb 11.3187 58.108
rfemur -15.7583 1.96904 7.7587
rtibia 32.3073
rfoot -10.7702 -9.98927
rtoes 2.71709
lfemur -9.90314 -1.6432 -15.9929
ltibia 24.7588
lfoot -11.0178 -1.38532
ltoes -8.86023
2119
root 3.43339 17.8314 1.44666 1.93413 -31.938 -1.46411
lowerback 2.52861 -1.18447 -6.45273
upperback 1.13882 -1.73057 -0.0774212
thorax -0.054552 -0.892399 3.57823
lowerneck -16.3902 -7.56378 -14.4208
upperneck 17.3914 -8.91036 9.99537
head 9.29108 -4.15888 4.61167
rclavicle -1.62506e-013 3.97569e-015
rhumerus -1.09893 3.53596 -56.6553
rradius 50.9526
rwrist 15.8357
rhand -20.5563 1.96759
rfingers 7.12502
rthumb 5.8027 -27.933
lclavicle -1.62506e-013 3.97569e-015
lhumerus -8.0731 -11.8146 61.8489
lradius 47.7561
lwrist -3.00332
lhand -15.5849 28.7734
lfingers 7.12502
lthumb 10.6006 58.486
rfemur -15.5817 2.11659 7.37003
rtibia 32.2056
rfoot -10.662 -10.1824
rtoes 3.33441
lfemur -9.61106 -1.77517 -16.1016
ltibia 24.5849
lfoot -11.0543 -1.36107
ltoes -8.85267
2120
root 3.3916 17.8269 1.46246 1.82905 -31.8003 -1.41619
lowerback 2.41454 -1.12102 -6.25378
upperback 1.09644 -1.6347 -0.11217
thorax -0.0519369 -0.842606 3.4269
lowerneck -16.5238 -7.69544 -14.4435
upperneck 17.6074 -9.077 9.95595
head 9.41186 -4.23952 4.57495
rclavicle 2.95195e-014 1.43125e-014
rhumerus -0.284389 2.00083 -55.1564
rradius 51.8005
rwrist 15.2273
rhand -20.6817 1.81627
rfingers 7.12502
rthumb 5.6817 -28.0876
lclavicle 2.95195e-014 1.43125e-014
lhumerus -6.6458 -10.952 60.2611
lradius 48.2554
lwrist -2.42704
lhand -16.3652 29.1825
lfingers 7.12502
lthumb 9.84778 58.9322
rfemur -15.4254 2.36301 7.13526
rtibia 32.0931
rfoot -10.7185 -10.2382
rtoes 3.44101
lfemur -9.36317 -1.81255 -16.0602
ltibia 24.4482
lfoot -11.1241 -1.41428
ltoes -8.5165
2121
root 3.34985 17.8224 1.47911 1.60593 -31.7212 -1.24863
lowerback 2.29093 -1.00709 -6.05451
upperback 1.18713 -1.46753 -0.243198
thorax 0.0842723 -0.764127 3.17298
lowerneck -16.877 -7.87933 -14.3585
upperneck 17.7398 -9.31688 9.96805
head 9.55066 -4.33377 4.52116
rclavicle -3.18552e-014 2.06736e-014
rhumerus 0.497567 0.23104 -53.7571
rradius 52.7488
rwrist 14.7597
rhand -20.8425 1.44564
rfingers 7.12502
rthumb 5.5264 -28.4623
lclavicle -3.18552e-014 2.06736e-014
lhumerus -4.87267 -10.0034 58.6818
lradius 48.6085
lwrist -1.70627
lhand -16.9338 29.7226
lfingers 7.12502
lthumb 9.29922 59.4975
rfemur -15.2255 2.63857 6.80502
rtibia 31.9747
rfoot -10.799 -10.1827
rtoes 3.63112
lfemur -9.041 -1.90812 -16.1504
ltibia 24.3129
lfoot -11.2132 -1.32072
ltoes -8.635
2122
root 3.3068 17.8198 1.49953 1.36973 -31.6681 -1.04916
lowerback 2.12743 -0.944348 -5.9634
upperback 1.18584 -1.37087 -0.308977
thorax 0.160937 -0.717349 3.04916
lowerneck -17.012 -7.93344 -14.1481
upperneck 17.8855 -9.38605 9.73111
head 9.61144 -4.37231 4.38978
rclavicle 4.03533e-014 -1.59028e-015
rhumerus 1.11147 -0.96962 -52.341
rradius 53.8845
rwrist 13.8018
rhand -21.5551 0.283982
rfingers 7.12502
rthumb 4.83841 -29.6408
lclavicle 4.03533e-014 -1.59028e-015
lhumerus -3.47199 -8.87644 57.2402
lradius 49.026
lwrist -0.924116
lhand -17.4921 30.3971
lfingers 7.12502
lthumb 8.76053 60.1953
rfemur -15.0292 2.94187 6.44014
rtibia 31.8649
rfoot -10.8779 -10.1385
rtoes 3.95093
lfemur -8.67592 -2.08508 -16.2954
ltibia 24.1571
lfoot -11.3016 -1.06412
ltoes -9.29643
2123
root 3.26221 17.8139 1.51424 1.15598 -31.6981 -0.946884
lowerback 2.10518 -0.928804 -5.9027
upperback 1.05043 -1.35184 -0.281388
thorax 0.0310981 -0.700811 3.04463
lowerneck -16.802 -7.85249 -14.0168
upperneck 17.9405 -9.29415 9.51396
head 9.5618 -4.35001 4.31119
rclavicle -6.05299e-014 1.27222e-014
rhumerus 1.74111 -1.82926 -51.0153
rradius 54.9803
rwrist 12.5984
rhand -22.3248 -0.740309
rfingers 7.12502
rthumb 4.09515 -30.6807
lclavicle -6.05299e-014 1.27222e-014
lhumerus -2.52239 -7.66807 55.8631
lradius 49.5762
lwrist 0.0822703
lhand -17.8874 31.0608
lfingers 7.12502
lthumb 8.37901 60.8746
rfemur -14.8416 3.48287 6.15327
rtibia 31.7267
rfoot -10.8981 -10.2142
rtoes 4.73916
lfemur -8.30648 -2.23095 -16.3159
ltibia 24.0207
lfoot -11.6557 -0.823093
ltoes -10.6582
